<svg width="166" height="84" viewBox="0 0 166 84" fill="none" xmlns="http://www.w3.org/2000/svg">
<g filter="url(#filter0_d_1_1026)">
<g clip-path="url(#clip0_1_1026)">
<path d="M5 8C5 3.58172 8.58172 0 13 0H155C159.418 0 163 3.58172 163 8V67C163 71.4183 159.418 75 155 75H13C8.58172 75 5 71.4183 5 67V8Z" fill="url(#paint0_linear_1_1026)"/>
<path d="M53.7047 56.044V57.5H39.4567V56.044L42.3167 55.68C42.8714 55.6107 43.2007 55.472 43.3047 55.264C43.4087 55.0213 43.4607 54.3107 43.4607 53.132V40.548H29.7847V53.132C29.7847 54.3107 29.8367 55.0213 29.9407 55.264C30.0447 55.472 30.374 55.6107 30.9287 55.68L33.7887 56.044V57.5H19.5407V56.044L22.4007 55.68C22.9554 55.6107 23.2847 55.472 23.3887 55.264C23.4927 55.0213 23.5447 54.3107 23.5447 53.132V26.508C23.5447 25.3293 23.4927 24.636 23.3887 24.428C23.2847 24.1853 22.9554 24.0293 22.4007 23.96L19.5407 23.596V22.14H33.7887V23.596L30.9287 23.96C30.374 24.0293 30.0447 24.1853 29.9407 24.428C29.8367 24.636 29.7847 25.3293 29.7847 26.508V38.728H43.4607V26.508C43.4607 25.3293 43.4087 24.636 43.3047 24.428C43.2007 24.1853 42.8714 24.0293 42.3167 23.96L39.4567 23.596V22.14H53.7047V23.596L50.8447 23.96C50.29 24.0293 49.9607 24.1853 49.8567 24.428C49.7527 24.636 49.7007 25.3293 49.7007 26.508V53.132C49.7007 54.3107 49.7527 55.0213 49.8567 55.264C49.9607 55.472 50.29 55.6107 50.8447 55.68L53.7047 56.044ZM58.1852 23.596V22.14H73.8892C77.5292 22.14 80.3372 22.9547 82.3132 24.584C84.2892 26.2133 85.2772 28.3973 85.2772 31.136V32.332C85.2772 34.412 84.7052 36.18 83.5612 37.636C82.4172 39.092 80.7706 40.132 78.6212 40.756L85.1212 53.132C85.5372 53.8947 85.8492 54.4493 86.0572 54.796C86.2652 55.1427 86.4559 55.368 86.6292 55.472C86.8372 55.5413 87.1146 55.6107 87.4612 55.68L89.8012 56.044V57.5H80.0772L72.2252 41.38H68.4292V53.132C68.4292 54.3107 68.4812 55.0213 68.5852 55.264C68.6892 55.472 69.0186 55.6107 69.5732 55.68L72.4332 56.044V57.5H58.1852V56.044L61.0452 55.68C61.5999 55.6107 61.9292 55.472 62.0332 55.264C62.1372 55.0213 62.1892 54.3107 62.1892 53.132V26.508C62.1892 25.3293 62.1372 24.636 62.0332 24.428C61.9292 24.1853 61.5999 24.0293 61.0452 23.96L58.1852 23.596ZM73.8892 23.96H68.4292V39.56H73.8892C75.4146 39.56 76.5759 39.092 77.3732 38.156C78.2052 37.1853 78.6212 35.4173 78.6212 32.852V30.616C78.6212 28.0507 78.2052 26.3 77.3732 25.364C76.5759 24.428 75.4146 23.96 73.8892 23.96ZM114.3 56.38V57.5H103.54V56.38L105.74 56.1C106.167 56.0467 106.42 55.94 106.5 55.78C106.58 55.5933 106.62 55.0467 106.62 54.14V44.06C106.62 42.22 106.34 40.8867 105.78 40.06C105.247 39.2067 104.447 38.78 103.38 38.78C102.927 38.78 102.394 38.9 101.78 39.14C101.194 39.3533 100.594 39.7533 99.9803 40.34C99.3936 40.9267 98.8736 41.7933 98.4203 42.94V54.14C98.4203 55.0467 98.4603 55.5933 98.5403 55.78C98.6203 55.94 98.8736 56.0467 99.3003 56.1L101.5 56.38V57.5H90.7403V56.38L92.9403 56.1C93.367 56.0467 93.6203 55.94 93.7003 55.78C93.7803 55.5933 93.8203 55.0467 93.8203 54.14V40.58C93.8203 39.6733 93.7803 39.14 93.7003 38.98C93.6203 38.7933 93.367 38.6733 92.9403 38.62L90.7403 38.34V37.22H98.1803V40.74C98.9536 39.38 99.9403 38.3933 101.14 37.78C102.367 37.14 103.594 36.82 104.82 36.82C106.794 36.82 108.354 37.4467 109.5 38.7C110.647 39.9533 111.22 41.7267 111.22 44.02V54.14C111.22 55.0467 111.26 55.5933 111.34 55.78C111.42 55.94 111.674 56.0467 112.1 56.1L114.3 56.38ZM133.702 52.74C133.222 54.6067 132.329 55.94 131.022 56.74C129.716 57.5133 128.196 57.9 126.462 57.9C123.262 57.9 120.862 56.98 119.262 55.14C117.662 53.2733 116.862 50.8067 116.862 47.74V46.94C116.862 43.8733 117.609 41.42 119.102 39.58C120.622 37.74 122.809 36.82 125.662 36.82C127.262 36.82 128.676 37.14 129.902 37.78C131.156 38.3933 132.129 39.2867 132.822 40.46C133.542 41.6333 133.902 43.06 133.902 44.74C133.902 45.14 133.876 45.5667 133.822 46.02C133.796 46.4733 133.729 46.9267 133.622 47.38H121.782V48.54C121.782 51.3667 122.182 53.4067 122.982 54.66C123.782 55.8867 125.076 56.5 126.862 56.5C128.009 56.5 128.982 56.1667 129.782 55.5C130.582 54.8067 131.036 53.6467 131.142 52.02L133.702 52.74ZM125.662 38.22C124.356 38.22 123.382 38.82 122.742 40.02C122.102 41.22 121.782 43.2067 121.782 45.98H129.022C129.129 45.4467 129.196 44.9533 129.222 44.5C129.276 44.02 129.302 43.58 129.302 43.18C129.302 41.4733 128.969 40.22 128.302 39.42C127.636 38.62 126.756 38.22 125.662 38.22ZM151.074 53.34C150.727 54.9667 150.061 56.14 149.074 56.86C148.114 57.5533 146.941 57.9 145.554 57.9C144.141 57.9 142.981 57.5933 142.074 56.98C141.167 56.34 140.501 55.5 140.074 54.46C139.647 53.42 139.434 52.3133 139.434 51.14V40.58C139.434 39.6733 139.394 39.14 139.314 38.98C139.234 38.7933 138.981 38.6733 138.554 38.62L136.354 38.34V37.22H139.434V32.58L144.034 31.66V37.22H150.434V38.62H144.034V51.94C144.034 53.6467 144.247 54.8333 144.674 55.5C145.101 56.14 145.647 56.46 146.314 56.46C147.007 56.46 147.541 56.1933 147.914 55.66C148.314 55.1267 148.567 54.1533 148.674 52.74L151.074 53.34Z" fill="#241DFF"/>
</g>
</g>
<defs>
<filter id="filter0_d_1_1026" x="0" y="0" width="166" height="84" filterUnits="userSpaceOnUse" color-interpolation-filters="sRGB">
<feFlood flood-opacity="0" result="BackgroundImageFix"/>
<feColorMatrix in="SourceAlpha" type="matrix" values="0 0 0 0 0 0 0 0 0 0 0 0 0 0 0 0 0 0 127 0" result="hardAlpha"/>
<feOffset dx="-1" dy="5"/>
<feGaussianBlur stdDeviation="2"/>
<feComposite in2="hardAlpha" operator="out"/>
<feColorMatrix type="matrix" values="0 0 0 0 0 0 0 0 0 0 0 0 0 0 0 0 0 0 0.34 0"/>
<feBlend mode="normal" in2="BackgroundImageFix" result="effect1_dropShadow_1_1026"/>
<feBlend mode="normal" in="SourceGraphic" in2="effect1_dropShadow_1_1026" result="shape"/>
</filter>
<linearGradient id="paint0_linear_1_1026" x1="163" y1="75" x2="21.8228" y2="-1.07248" gradientUnits="userSpaceOnUse">
<stop stop-color="#46E079" stop-opacity="0.59"/>
<stop offset="1" stop-color="#ACFCC7" stop-opacity="0.82"/>
</linearGradient>
<clipPath id="clip0_1_1026">
<path d="M5 16C5 7.16344 12.1634 0 21 0H147C155.837 0 163 7.16344 163 16V59C163 67.8366 155.837 75 147 75H21C12.1634 75 5 67.8366 5 59V16Z" fill="white"/>
</clipPath>
</defs>
</svg>
